<?xml version="1.0" encoding="UTF-8"?><svg id="Ebene_1" xmlns="http://www.w3.org/2000/svg" width="17.638889mm" height="17.638889mm" viewBox="0 0 50 50"><defs><style>.cls-1{fill:#d2ff20;}</style></defs><path class="cls-1" d="M25,0C11.214844,0,0,11.214844,0,25s11.214844,25,25,25,25-11.214844,25-25S38.785156,0,25,0ZM24.446716,27.003418c-2.768616,3.3172-3.554077,7.984619-3.76178,12.363098-.061707-1.801392-.223999-3.609314-.587524-5.365234-1.551514-7.494446-6.202698-10.905884-12.895508-11.671875-.227173-.025879-1.801392-.061584-1.801392-.181702,4.751831-.162292,9.678894-1.645569,12.515686-6.147522,2.009216-3.187378,2.638916-7.173218,2.768738-11,.191467,3.482727.649109,7.056335,2.271973,10.100952,2.736206,5.138062,7.929504,6.929688,13.077332,7.010864.00647.107117-.233704.126587-.301941.136292-4.320068.499817-8.156555,1.006226-11.285583,4.755127ZM41.834412,35.299805c0,.058411-.120117.068237-.152466.071411-2.200745.266174-4.151428.535583-5.741821,2.541504-1.408691,1.772217-1.807922,4.264893-1.914978,6.605103-.032532-.960693-.113708-1.92804-.298706-2.866028-.788696-4.00531-3.154907-5.826172-6.562927-6.235107-.113586-.013-.918579-.032471-.915283-.097351,2.418091-.087646,4.927063-.879639,6.371399-3.284729,1.0224-1.704102,1.343811-3.830078,1.408691-5.878174.097412,1.859863.331116,3.768372,1.155518,5.39447,1.392395,2.742737,4.034485,3.703491,6.657104,3.745728l-.006531.003174Z"/></svg>