<?xml version="1.0" encoding="UTF-8"?><svg id="Ebene_1" xmlns="http://www.w3.org/2000/svg" width="16.298347mm" height="14.194072mm" viewBox="0 0 46.200039 40.235164"><defs><style>.cls-1{fill:#d2ff20;stroke:#d2ff20;stroke-width:1.2px;}</style></defs><path class="cls-1" d="M30.328588,1.004635c6.3717-1.488722,12.492401,1.15926,14.573299,7.46875h.0009c1.636799,4.954329.2295,9.689529-2.5322,13.94533-2.7654,4.2612-6.855801,7.9855-10.4648,10.864199-2.8172,2.247002-5.800701,4.303001-8.8438,6.250999-.1066-.060997-.239801-.141296-.3799-.230499-.314402-.2001-.630402-.414497-.747002-.491199l-.0049-.002899-1.4219-.931599c-3.393299-2.263603-7.2659-5.151302-10.688469-8.407301-3.9202-3.729401-7.20525-7.9002-8.542-12.1308C.111176,13.641114.478,9.593155,2.166498,6.417725,3.848448,3.254675,6.836278.960528,10.954588.704831c2.2916-.142452,4.5992.000649,6.648399.892574,2.050402.89247,3.5648,2.38886,5.089901,4.03809l.3652.39551.367199-.39356c2.0326-2.17811,4.054201-3.96907,6.903301-4.63281Z"/></svg>