<?xml version="1.0" encoding="UTF-8"?><svg id="Ebene_1" xmlns="http://www.w3.org/2000/svg" width="17.638889mm" height="17.638889mm" viewBox="0 0 50 50"><defs><style>.cls-1{fill:#d2ff20;}</style></defs><path class="cls-1" d="M25,0C11.214844,0,0,11.214844,0,25s11.214844,25,25,25,25-11.214844,25-25S38.785156,0,25,0ZM37.495178,19.573242c-.963684.296387-1.829102.146484-2.782593.326355-.926392.173096-1.83252.645935-2.531494,1.258606-3.254272,3.236511-6.556091,6.439697-9.796814,9.679626-1.452393,1.451782-2.945496,2.493958-3.210205,4.688293-.071289.582703-.020386,1.118774-.145874,1.711487-.397034,1.854675-1.947815,3.376282-3.834595,3.76593l1.089294-4.075623-1.700134-1.877991-.264648-.22644-2.71814.875732-1.126587,3.969116c-.783936-.795837-1.313293-1.838013-1.438843-2.946838-.288452-2.540588,1.496521-4.971375,4.065369-5.434204.570068-.103149,1.140198-.049866,1.713684-.106506,1.130005-.116577,2.195496-.609375,3.033691-1.348572l11.731018-11.587524c.671875-.782471,1.133362-1.744751,1.255554-2.76709.07135-.592712.020447-1.135376.15271-1.738098.403809-1.841309,1.95459-3.356384,3.831238-3.739319l-1.089294,4.075623,1.940979,2.101135,2.7453-.872437,1.079102-3.969116c.040771-.039856.295288.266418.329224.309753,2.307495,2.673767,1.065491,6.889282-2.327942,7.928101Z"/></svg>